<?xml version="1.0" encoding="UTF-8"?>
<svg xmlns="http://www.w3.org/2000/svg" xmlns:xlink="http://www.w3.org/1999/xlink" width="48pt" height="48pt" viewBox="0 0 48 48" version="1.2">
<defs>
<clipPath id="clip1">
  <path d="M 11 17 L 37 17 L 37 40.308594 L 11 40.308594 Z M 11 17 "/>
</clipPath>
<clipPath id="clip2">
  <path d="M 5.191406 6.511719 L 42.660156 6.511719 L 42.660156 28 L 5.191406 28 Z M 5.191406 6.511719 "/>
</clipPath>
</defs>
<g id="surface1">
<g clip-path="url(#clip1)" clip-rule="nonzero">
<path style=" stroke:none;fill-rule:nonzero;fill:rgb(71.759033%,71.759033%,64.309692%);fill-opacity:1;" d="M 34.273438 40.3125 L 13.589844 40.3125 C 12.242188 40.3125 11.148438 39.222656 11.148438 37.878906 L 11.148438 19.507812 C 11.148438 18.164062 12.242188 17.074219 13.589844 17.074219 C 14.9375 17.074219 16.027344 18.164062 16.027344 19.507812 L 16.027344 35.445312 L 31.832031 35.445312 L 31.832031 19.507812 C 31.832031 18.164062 32.925781 17.074219 34.273438 17.074219 C 35.617188 17.074219 36.710938 18.164062 36.710938 19.507812 L 36.710938 37.878906 C 36.710938 39.222656 35.617188 40.3125 34.273438 40.3125 "/>
</g>
<g clip-path="url(#clip2)" clip-rule="nonzero">
<path style=" stroke:none;fill-rule:nonzero;fill:rgb(71.759033%,71.759033%,64.309692%);fill-opacity:1;" d="M 39.957031 27.613281 C 39.332031 27.613281 38.707031 27.375 38.230469 26.898438 L 23.929688 12.628906 L 9.628906 26.898438 C 8.675781 27.851562 7.132812 27.851562 6.179688 26.898438 C 5.230469 25.949219 5.230469 24.410156 6.179688 23.457031 L 22.207031 7.464844 C 23.160156 6.515625 24.703125 6.515625 25.65625 7.464844 L 41.679688 23.457031 C 42.632812 24.410156 42.632812 25.949219 41.679688 26.898438 C 41.203125 27.375 40.578125 27.613281 39.957031 27.613281 "/>
</g>
<path style=" stroke:none;fill-rule:nonzero;fill:rgb(71.759033%,71.759033%,64.309692%);fill-opacity:1;" d="M 34.273438 21.941406 C 32.925781 21.941406 31.832031 20.851562 31.832031 19.507812 L 31.832031 11.75 C 31.832031 10.40625 32.925781 9.316406 34.273438 9.316406 C 35.617188 9.316406 36.710938 10.40625 36.710938 11.75 L 36.710938 19.507812 C 36.710938 20.851562 35.617188 21.941406 34.273438 21.941406 "/>
</g>
</svg>
