<?xml version="1.0" encoding="UTF-8"?>
<svg xmlns="http://www.w3.org/2000/svg" xmlns:xlink="http://www.w3.org/1999/xlink" width="48pt" height="48pt" viewBox="0 0 48 48" version="1.2">
<defs>
<clipPath id="clip1">
  <path d="M 6.167969 6.101562 L 42 6.101562 L 42 40.632812 L 6.167969 40.632812 Z M 6.167969 6.101562 "/>
</clipPath>
<clipPath id="clip2">
  <path d="M 6.167969 23 L 25 23 L 25 40.632812 L 6.167969 40.632812 Z M 6.167969 23 "/>
</clipPath>
</defs>
<g id="surface1">
<g clip-path="url(#clip1)" clip-rule="nonzero">
<path style=" stroke:none;fill-rule:nonzero;fill:rgb(41.958618%,43.919373%,36.079407%);fill-opacity:1;" d="M 41.996094 32.308594 C 42.019531 32.625 41.953125 32.917969 41.804688 33.199219 C 41.652344 33.476562 41.4375 33.691406 41.160156 33.847656 L 33.421875 38.234375 C 33.1875 38.367188 32.949219 38.382812 32.699219 38.285156 C 32.449219 38.1875 32.285156 38.015625 32.207031 37.769531 L 29.558594 29.390625 C 29.460938 29.089844 29.453125 28.785156 29.535156 28.480469 C 29.617188 28.175781 29.777344 27.917969 30.011719 27.703125 C 30.246094 27.488281 30.519531 27.351562 30.835938 27.292969 C 31.152344 27.234375 31.457031 27.261719 31.757812 27.375 L 33.515625 28.054688 C 34.164062 26.644531 34.492188 25.160156 34.496094 23.613281 L 34.496094 23.359375 C 34.46875 22.671875 34.378906 21.996094 34.21875 21.332031 C 34.0625 20.664062 33.839844 20.015625 33.558594 19.390625 C 33.273438 18.765625 32.933594 18.167969 32.535156 17.605469 C 32.136719 17.042969 31.6875 16.523438 31.191406 16.046875 C 30.691406 15.566406 30.152344 15.140625 29.570312 14.761719 C 28.988281 14.382812 28.375 14.0625 27.730469 13.800781 C 27.085938 13.539062 26.421875 13.335938 25.738281 13.199219 C 25.054688 13.058594 24.363281 12.984375 23.667969 12.976562 L 23.484375 12.976562 C 22.816406 12.984375 22.160156 13.058594 21.503906 13.1875 C 20.851562 13.320312 20.21875 13.507812 19.601562 13.753906 C 18.984375 14 18.394531 14.300781 17.832031 14.652344 C 17.273438 15.003906 16.75 15.40625 16.261719 15.855469 C 15.777344 16.300781 15.335938 16.789062 14.941406 17.316406 C 14.546875 17.84375 14.207031 18.402344 13.917969 18.992188 C 13.628906 19.582031 13.394531 20.195312 13.222656 20.824219 C 13.046875 21.457031 12.933594 22.097656 12.878906 22.75 C 12.824219 23.402344 12.832031 24.054688 12.902344 24.707031 C 12.96875 25.355469 13.097656 25.996094 13.289062 26.625 C 13.476562 27.253906 13.722656 27.859375 14.023438 28.441406 C 14.328125 29.023438 14.679688 29.574219 15.085938 30.09375 C 15.492188 30.613281 15.945312 31.089844 16.441406 31.527344 C 16.9375 31.964844 17.46875 32.355469 18.039062 32.695312 C 18.605469 33.035156 19.203125 33.320312 19.824219 33.554688 C 20.449219 33.785156 21.085938 33.960938 21.742188 34.078125 C 22.382812 34.1875 22.9375 34.457031 23.417969 34.882812 C 23.894531 35.3125 24.21875 35.835938 24.386719 36.449219 C 24.558594 37.0625 24.542969 37.671875 24.351562 38.28125 C 24.15625 38.886719 23.8125 39.394531 23.316406 39.804688 C 22.714844 40.308594 22.015625 40.558594 21.226562 40.558594 C 21.042969 40.558594 20.859375 40.542969 20.675781 40.507812 C 19.671875 40.335938 18.6875 40.082031 17.726562 39.742188 C 16.769531 39.402344 15.84375 38.980469 14.960938 38.480469 C 14.074219 37.984375 13.238281 37.410156 12.457031 36.769531 C 11.671875 36.125 10.953125 35.421875 10.292969 34.65625 C 9.636719 33.886719 9.050781 33.070312 8.539062 32.203125 C 8.023438 31.335938 7.59375 30.433594 7.242188 29.492188 C 6.890625 28.546875 6.625 27.585938 6.445312 26.597656 C 6.265625 25.609375 6.175781 24.613281 6.175781 23.613281 C 6.175781 23.300781 6.175781 23 6.175781 22.6875 C 6.238281 21.640625 6.398438 20.605469 6.652344 19.585938 C 6.910156 18.566406 7.257812 17.574219 7.695312 16.617188 C 8.132812 15.660156 8.65625 14.75 9.265625 13.882812 C 9.871094 13.019531 10.554688 12.214844 11.308594 11.472656 C 12.066406 10.730469 12.882812 10.0625 13.765625 9.464844 C 14.644531 8.867188 15.570312 8.355469 16.546875 7.921875 C 17.523438 7.492188 18.53125 7.152344 19.566406 6.898438 C 20.605469 6.648438 21.660156 6.492188 22.726562 6.429688 C 23.46875 6.386719 24.210938 6.394531 24.953125 6.449219 C 25.691406 6.5 26.425781 6.597656 27.15625 6.742188 C 27.882812 6.886719 28.601562 7.078125 29.304688 7.3125 C 30.007812 7.546875 30.695312 7.824219 31.363281 8.144531 C 32.03125 8.464844 32.675781 8.824219 33.296875 9.226562 C 33.917969 9.625 34.507812 10.0625 35.074219 10.539062 C 35.636719 11.015625 36.167969 11.523438 36.667969 12.0625 C 37.164062 12.605469 37.625 13.175781 38.050781 13.777344 C 38.476562 14.375 38.859375 15 39.203125 15.644531 C 39.546875 16.292969 39.847656 16.960938 40.101562 17.644531 C 40.359375 18.328125 40.570312 19.027344 40.738281 19.738281 C 40.90625 20.449219 41.023438 21.167969 41.097656 21.894531 C 41.171875 22.621094 41.195312 23.351562 41.175781 24.078125 C 41.152344 24.808594 41.085938 25.535156 40.96875 26.257812 C 40.855469 26.976562 40.691406 27.6875 40.484375 28.390625 C 40.277344 29.089844 40.023438 29.773438 39.730469 30.445312 L 40.9375 30.910156 C 41.234375 31.023438 41.480469 31.207031 41.671875 31.460938 C 41.863281 31.714844 41.96875 31.996094 41.996094 32.308594 Z M 41.996094 32.308594 "/>
</g>
<g clip-path="url(#clip2)" clip-rule="nonzero">
<path style=" stroke:none;fill-rule:nonzero;fill:rgb(41.958618%,43.919373%,36.079407%);fill-opacity:1;" d="M 24.5 37.300781 C 24.503906 37.792969 24.402344 38.257812 24.191406 38.703125 C 23.980469 39.144531 23.683594 39.523438 23.300781 39.839844 C 22.699219 40.339844 22 40.589844 21.210938 40.589844 C 21.027344 40.589844 20.84375 40.574219 20.660156 40.542969 C 19.652344 40.371094 18.671875 40.113281 17.710938 39.769531 C 16.75 39.429688 15.828125 39.007812 14.941406 38.507812 C 14.054688 38.007812 13.222656 37.433594 12.4375 36.789062 C 11.65625 36.144531 10.933594 35.441406 10.277344 34.671875 C 9.621094 33.902344 9.035156 33.085938 8.523438 32.214844 C 8.011719 31.347656 7.582031 30.441406 7.230469 29.496094 C 6.882812 28.554688 6.617188 27.589844 6.441406 26.601562 C 6.261719 25.613281 6.175781 24.617188 6.175781 23.613281 L 12.839844 23.613281 C 12.839844 24.230469 12.894531 24.84375 13 25.453125 C 13.109375 26.058594 13.273438 26.65625 13.484375 27.234375 C 13.699219 27.816406 13.964844 28.375 14.277344 28.910156 C 14.589844 29.445312 14.949219 29.953125 15.351562 30.425781 C 15.753906 30.902344 16.195312 31.339844 16.675781 31.738281 C 17.15625 32.136719 17.667969 32.492188 18.214844 32.800781 C 18.757812 33.113281 19.324219 33.375 19.914062 33.589844 C 20.503906 33.804688 21.109375 33.96875 21.726562 34.078125 C 22.113281 34.140625 22.480469 34.269531 22.820312 34.460938 C 23.160156 34.652344 23.460938 34.898438 23.714844 35.191406 C 23.96875 35.488281 24.160156 35.816406 24.296875 36.179688 C 24.433594 36.539062 24.5 36.914062 24.5 37.300781 Z M 24.5 37.300781 "/>
</g>
<path style=" stroke:none;fill-rule:nonzero;fill:rgb(41.958618%,43.919373%,36.079407%);fill-opacity:1;" d="M 41.996094 32.308594 C 42.019531 32.625 41.953125 32.917969 41.804688 33.199219 C 41.652344 33.476562 41.4375 33.691406 41.160156 33.847656 L 33.421875 38.234375 C 33.1875 38.367188 32.949219 38.382812 32.699219 38.285156 C 32.449219 38.1875 32.285156 38.015625 32.207031 37.769531 L 29.558594 29.390625 C 29.460938 29.089844 29.453125 28.785156 29.535156 28.480469 C 29.617188 28.175781 29.777344 27.917969 30.011719 27.703125 C 30.246094 27.488281 30.519531 27.351562 30.835938 27.292969 C 31.152344 27.234375 31.457031 27.261719 31.757812 27.375 L 33.515625 28.054688 C 34.164062 26.644531 34.492188 25.160156 34.496094 23.613281 L 41.160156 23.613281 C 41.167969 25.988281 40.6875 28.265625 39.730469 30.445312 L 40.9375 30.910156 C 41.234375 31.023438 41.480469 31.207031 41.671875 31.460938 C 41.863281 31.714844 41.96875 31.996094 41.996094 32.308594 Z M 41.996094 32.308594 "/>
</g>
</svg>
