<?xml version="1.0" encoding="UTF-8"?>
<svg xmlns="http://www.w3.org/2000/svg" xmlns:xlink="http://www.w3.org/1999/xlink" width="48pt" height="48pt" viewBox="0 0 48 48" version="1.2">
<defs>
<clipPath id="clip1">
  <path d="M 1.242188 3 L 45 3 L 45 46.304688 L 1.242188 46.304688 Z M 1.242188 3 "/>
</clipPath>
</defs>
<g id="surface1">
<g clip-path="url(#clip1)" clip-rule="nonzero">
<path style=" stroke:none;fill-rule:nonzero;fill:rgb(71.759033%,71.759033%,64.309692%);fill-opacity:1;" d="M 26.109375 35.871094 C 34.105469 35.871094 40.585938 29.390625 40.585938 21.394531 C 40.585938 13.398438 34.105469 6.917969 26.109375 6.917969 C 18.113281 6.917969 11.632812 13.398438 11.632812 21.394531 C 11.640625 29.386719 18.117188 35.863281 26.109375 35.871094 Z M 1.980469 42.792969 L 11.855469 32.917969 C 5.480469 25.039062 6.703125 13.480469 14.582031 7.109375 C 22.464844 0.734375 34.023438 1.953125 40.394531 9.835938 C 46.769531 17.71875 45.550781 29.273438 37.667969 35.648438 C 30.9375 41.09375 21.316406 41.09375 14.582031 35.648438 L 4.710938 45.523438 C 3.960938 46.277344 2.738281 46.28125 1.980469 45.53125 C 1.226562 44.78125 1.222656 43.558594 1.972656 42.800781 C 1.976562 42.800781 1.980469 42.796875 1.980469 42.792969 "/>
</g>
</g>
</svg>
