<?xml version="1.0" encoding="UTF-8"?>
<svg xmlns="http://www.w3.org/2000/svg" xmlns:xlink="http://www.w3.org/1999/xlink" width="48pt" height="48pt" viewBox="0 0 48 48" version="1.2">
<defs>
<clipPath id="clip1">
  <path d="M 5.191406 9 L 42.660156 9 L 42.660156 38 L 5.191406 38 Z M 5.191406 9 "/>
</clipPath>
</defs>
<g id="surface1">
<g clip-path="url(#clip1)" clip-rule="nonzero">
<path style=" stroke:none;fill-rule:evenodd;fill:rgb(98.039246%,97.648621%,97.648621%);fill-opacity:1;" d="M 17.652344 28.230469 L 35.542969 10.332031 C 37.082031 8.789062 39.582031 8.789062 41.121094 10.332031 C 42.660156 11.871094 42.660156 14.371094 41.121094 15.910156 L 20.460938 36.582031 C 20.457031 36.589844 20.449219 36.597656 20.441406 36.601562 C 18.902344 38.144531 16.402344 38.144531 14.863281 36.601562 L 14.121094 35.859375 L 6.734375 28.46875 C 5.195312 26.929688 5.195312 24.429688 6.734375 22.890625 C 8.273438 21.347656 10.773438 21.347656 12.3125 22.890625 L 17.652344 28.230469 "/>
</g>
</g>
</svg>
